<?xml version="1.0" encoding="UTF-8"?>
<svg version="1.1" xmlns="http://www.w3.org/2000/svg" width="461" height="319">
<path d="M0 0 C24.30351393 -0.70989646 48.38191228 6.33108617 66.5234375 23.12109375 C66.5234375 23.78109375 66.5234375 24.44109375 66.5234375 25.12109375 C67.10609375 25.37890625 67.68875 25.63671875 68.2890625 25.90234375 C70.7037278 27.21943392 72.34083927 28.67197759 74.2734375 30.62109375 C74.88703125 31.22953125 75.500625 31.83796875 76.1328125 32.46484375 C77.5234375 34.12109375 77.5234375 34.12109375 77.5234375 36.12109375 C78.5134375 36.45109375 79.5034375 36.78109375 80.5234375 37.12109375 C83.5234375 40.56553819 83.5234375 40.56553819 83.5234375 43.12109375 C84.1834375 43.12109375 84.8434375 43.12109375 85.5234375 43.12109375 C91.19338963 52.52160263 95.93915648 61.47085931 98.93652344 72.09033203 C99.56980826 74.28153967 100.26842085 76.44653621 100.96875 78.6171875 C104.541912 90.18828312 104.90342999 100.15133369 103.5234375 112.12109375 C103.40613281 113.38308594 103.28882813 114.64507812 103.16796875 115.9453125 C102.36823123 123.26964126 100.88655545 130.34383069 99.1484375 137.49609375 C98.85308105 138.72670532 98.85308105 138.72670532 98.55175781 139.98217773 C97.10427639 145.66682159 95.06252894 150.8394803 92.5234375 156.12109375 C92.03230469 157.17554688 91.54117188 158.23 91.03515625 159.31640625 C89.36198201 162.42064166 87.43998679 165.16769963 85.3359375 167.99609375 C84.26279297 169.44628906 84.26279297 169.44628906 83.16796875 170.92578125 C82.35392578 172.01246094 82.35392578 172.01246094 81.5234375 173.12109375 C82.1834375 173.12109375 82.8434375 173.12109375 83.5234375 173.12109375 C83.5234375 173.78109375 83.5234375 174.44109375 83.5234375 175.12109375 C84.1215625 175.40984375 84.7196875 175.69859375 85.3359375 175.99609375 C87.5234375 177.12109375 87.5234375 177.12109375 90.5234375 179.12109375 C91.5134375 178.79109375 92.5034375 178.46109375 93.5234375 178.12109375 C104.09121236 176.96824558 112.93269731 182.13807278 120.9765625 188.5703125 C122.5234375 190.12109375 122.5234375 190.12109375 122.5234375 192.12109375 C123.5134375 192.45109375 124.5034375 192.78109375 125.5234375 193.12109375 C127.34765625 194.8984375 127.34765625 194.8984375 129.2109375 197.05859375 C130.14486328 198.12400391 130.14486328 198.12400391 131.09765625 199.2109375 C132.5234375 201.12109375 132.5234375 201.12109375 132.5234375 203.12109375 C133.10609375 203.38921875 133.68875 203.65734375 134.2890625 203.93359375 C136.55130351 205.13590366 138.32920068 206.45935288 140.2734375 208.12109375 C140.88703125 208.63671875 141.500625 209.15234375 142.1328125 209.68359375 C143.5234375 211.12109375 143.5234375 211.12109375 143.5234375 213.12109375 C144.5134375 213.45109375 145.5034375 213.78109375 146.5234375 214.12109375 C146.5234375 214.78109375 146.5234375 215.44109375 146.5234375 216.12109375 C147.8434375 216.78109375 149.1634375 217.44109375 150.5234375 218.12109375 C150.5234375 218.78109375 150.5234375 219.44109375 150.5234375 220.12109375 C151.5134375 220.45109375 152.5034375 220.78109375 153.5234375 221.12109375 C155.12982336 223.07017526 156.50518335 225.12360566 157.92578125 227.2109375 C159.38777335 229.22131763 159.38777335 229.22131763 161.51171875 230.09765625 C165.74906124 232.25335282 167.73882197 236.89346084 169.5234375 241.12109375 C171.17739302 250.80665727 167.65836095 258.08093926 162.25390625 265.9140625 C157.14344487 272.43191957 150.25373582 278.30727393 141.85546875 279.5 C135.58737587 279.76801501 130.6601389 278.82254034 125.5234375 275.12109375 C122.5234375 271.93359375 122.5234375 271.93359375 122.5234375 269.12109375 C121.44255859 268.77884766 121.44255859 268.77884766 120.33984375 268.4296875 C116.9498971 266.85460827 115.02987687 264.88753148 112.4609375 262.18359375 C109.0343913 258.58371231 109.0343913 258.58371231 105.21484375 255.4296875 C104.65667969 254.99785156 104.09851563 254.56601562 103.5234375 254.12109375 C103.5234375 253.46109375 103.5234375 252.80109375 103.5234375 252.12109375 C102.5334375 251.79109375 101.5434375 251.46109375 100.5234375 251.12109375 C100.5234375 250.46109375 100.5234375 249.80109375 100.5234375 249.12109375 C99.5334375 248.79109375 98.5434375 248.46109375 97.5234375 248.12109375 C95.69921875 246.34375 95.69921875 246.34375 93.8359375 244.18359375 C92.90201172 243.11818359 92.90201172 243.11818359 91.94921875 242.03125 C90.5234375 240.12109375 90.5234375 240.12109375 90.5234375 238.12109375 C89.9253125 237.85296875 89.3271875 237.58484375 88.7109375 237.30859375 C86.52495896 236.12191969 85.11011156 235.02510262 83.5234375 233.12109375 C83.5234375 232.46109375 83.5234375 231.80109375 83.5234375 231.12109375 C82.94078125 230.85296875 82.358125 230.58484375 81.7578125 230.30859375 C79.49557149 229.10628384 77.71767432 227.78283462 75.7734375 226.12109375 C75.15984375 225.60546875 74.54625 225.08984375 73.9140625 224.55859375 C72.5234375 223.12109375 72.5234375 223.12109375 72.5234375 221.12109375 C71.8634375 221.12109375 71.2034375 221.12109375 70.5234375 221.12109375 C68.97662168 218.02746211 69.10442012 214.71033606 68.8984375 211.30859375 C68.846875 210.59638672 68.7953125 209.88417969 68.7421875 209.15039062 C68.49936922 205.29029415 68.53645155 201.87016724 69.5234375 198.12109375 C68.8634375 197.66734375 68.2034375 197.21359375 67.5234375 196.74609375 C66.8634375 196.20984375 66.2034375 195.67359375 65.5234375 195.12109375 C65.5234375 194.46109375 65.5234375 193.80109375 65.5234375 193.12109375 C64.02683594 193.98927734 64.02683594 193.98927734 62.5 194.875 C38.00565364 208.85683055 7.15496738 219.90224556 -21.4765625 213.12109375 C-21.4765625 212.46109375 -21.4765625 211.80109375 -21.4765625 211.12109375 C-22.6315625 211.05921875 -23.7865625 210.99734375 -24.9765625 210.93359375 C-31.7513739 210.17609515 -38.13495547 207.97524294 -44.55322266 205.77539062 C-46.23168571 205.20439786 -47.92169616 204.66757733 -49.61328125 204.13671875 C-58.76652618 200.89000158 -65.62338171 194.74692379 -72.85766602 188.4621582 C-74.64780713 186.93209398 -74.64780713 186.93209398 -77.4765625 185.12109375 C-77.4765625 184.46109375 -77.4765625 183.80109375 -77.4765625 183.12109375 C-78.0746875 182.85296875 -78.6728125 182.58484375 -79.2890625 182.30859375 C-81.47504104 181.12191969 -82.88988844 180.02510262 -84.4765625 178.12109375 C-84.4765625 177.46109375 -84.4765625 176.80109375 -84.4765625 176.12109375 C-85.1365625 176.12109375 -85.7965625 176.12109375 -86.4765625 176.12109375 C-89.4765625 171.73647837 -89.4765625 171.73647837 -89.4765625 169.12109375 C-90.1365625 169.12109375 -90.7965625 169.12109375 -91.4765625 169.12109375 C-93.4936003 165.46353187 -95.48957204 161.79505879 -97.4765625 158.12109375 C-97.83234375 157.47785156 -98.188125 156.83460938 -98.5546875 156.171875 C-111.14634086 132.42913879 -114.503197 103.31977947 -108.4765625 77.12109375 C-105.19968158 66.44959097 -100.37728675 54.9934535 -93.4765625 46.12109375 C-92.8165625 46.12109375 -92.1565625 46.12109375 -91.4765625 46.12109375 C-91.4765625 45.13109375 -91.4765625 44.14109375 -91.4765625 43.12109375 C-90.8165625 43.12109375 -90.1565625 43.12109375 -89.4765625 43.12109375 C-89.20561768 42.52490234 -88.93467285 41.92871094 -88.65551758 41.31445312 C-87.49256843 39.15087161 -86.34770761 37.74758314 -84.61328125 36.02734375 C-84.05576172 35.47175781 -83.49824219 34.91617188 -82.92382812 34.34375 C-82.34310547 33.77527344 -81.76238281 33.20679688 -81.1640625 32.62109375 C-80.59494141 32.05261719 -80.02582031 31.48414062 -79.43945312 30.8984375 C-70.57046657 22.12109375 -70.57046657 22.12109375 -67.4765625 22.12109375 C-66.9815625 20.63609375 -66.9815625 20.63609375 -66.4765625 19.12109375 C-64.18359375 17.3671875 -64.18359375 17.3671875 -61.2890625 15.55859375 C-59.87560547 14.65947266 -59.87560547 14.65947266 -58.43359375 13.7421875 C-55.48384225 12.12508463 -52.67679076 11.13146965 -49.4765625 10.12109375 C-47.76467383 9.33714473 -46.05647052 8.54511035 -44.3515625 7.74609375 C-30.26989839 1.8335441 -15.07117029 0.73691842 0 0 Z M-27.4765625 24.12109375 C-28.3325 24.34023438 -29.1884375 24.559375 -30.0703125 24.78515625 C-35.58847151 26.29766369 -40.43998679 28.41626605 -45.4765625 31.12109375 C-45.4765625 31.78109375 -45.4765625 32.44109375 -45.4765625 33.12109375 C-46.0128125 33.20359375 -46.5490625 33.28609375 -47.1015625 33.37109375 C-50.34996941 34.39690646 -52.76408109 36.08673269 -55.4765625 38.12109375 C-55.4765625 38.78109375 -55.4765625 39.44109375 -55.4765625 40.12109375 C-56.03601563 40.35570313 -56.59546875 40.5903125 -57.171875 40.83203125 C-64.75543987 45.07368618 -70.55776178 53.09633942 -75.4765625 60.12109375 C-76.15332031 60.99701172 -76.15332031 60.99701172 -76.84375 61.890625 C-79.9931632 66.01840621 -81.98420128 70.1414014 -83.4765625 75.12109375 C-83.98896484 76.76851562 -83.98896484 76.76851562 -84.51171875 78.44921875 C-86.78894106 86.2754526 -87.92363103 93.91853037 -88.3515625 102.05859375 C-88.40070801 102.92186279 -88.44985352 103.78513184 -88.50048828 104.67456055 C-88.71317432 110.45884141 -88.01298255 115.55007972 -86.4765625 121.12109375 C-86.01636719 122.78978516 -86.01636719 122.78978516 -85.546875 124.4921875 C-83.73492684 130.36978795 -81.77852257 136.10063692 -79.41015625 141.77734375 C-78.217137 144.77237116 -77.28059729 147.82297381 -76.3828125 150.91796875 C-72.26935017 160.91793751 -62.65210609 171.60432778 -53.3515625 176.97265625 C-51.4765625 178.12109375 -51.4765625 178.12109375 -50.0546875 179.64453125 C-43.41675871 185.8552666 -30.04372302 186.58831104 -21.4765625 188.12109375 C-20.42082031 188.31703125 -19.36507812 188.51296875 -18.27734375 188.71484375 C-11.36408691 189.94386719 -4.48684215 190.72807938 2.5234375 191.12109375 C3.99103516 191.21970703 3.99103516 191.21970703 5.48828125 191.3203125 C18.67194062 191.82271213 29.36574473 186.67402442 40.5234375 180.12109375 C41.33296875 179.651875 42.1425 179.18265625 42.9765625 178.69921875 C46.65373439 176.49291562 49.57118226 174.25786495 52.5234375 171.12109375 C53.81164328 170.03364731 55.1037496 168.9508146 56.3984375 167.87109375 C62.57372548 162.4992819 66.55480837 156.21545732 70.5234375 149.12109375 C70.86036621 148.53102539 71.19729492 147.94095703 71.54443359 147.33300781 C82.81907879 127.34589004 83.35711482 106.72372079 78.4609375 84.55859375 C76.21400561 77.06507591 71.84915941 70.56594848 67.5234375 64.12109375 C66.92885742 63.23357422 66.92885742 63.23357422 66.32226562 62.328125 C61.08936719 54.68070364 55.53909917 49.07707036 47.89453125 43.828125 C45.5234375 42.12109375 45.5234375 42.12109375 44.5234375 40.12109375 C42.79324613 39.10909503 41.06004095 38.10120238 39.30078125 37.140625 C37.5234375 36.12109375 37.5234375 36.12109375 35.2734375 34.37109375 C33.47500098 32.83047465 33.47500098 32.83047465 30.5234375 33.12109375 C30.5234375 32.46109375 30.5234375 31.80109375 30.5234375 31.12109375 C13.98527392 22.422226 -9.23395154 18.95235398 -27.4765625 24.12109375 Z " fill="#F0CD85" transform="translate(235.4765625,21.87890625)"/>
<path d="M0 0 C1.65 0.33 3.3 0.66 5 1 C5.11214844 2.00675781 5.22429687 3.01351562 5.33984375 4.05078125 C7.95559878 23.86327761 16.82261564 41.12127979 32.625 53.625 C33.46289062 54.23601562 34.30078125 54.84703125 35.1640625 55.4765625 C35.76992187 55.97929687 36.37578125 56.48203125 37 57 C37 57.66 37 58.32 37 59 C37.53625 59.061875 38.0725 59.12375 38.625 59.1875 C41.35853476 60.12265663 42.95740853 61.66033698 45.109375 63.53515625 C57.23305518 72.9285035 70.26246396 74.64866174 85 76 C85.33 77.32 85.66 78.64 86 80 C84.515 80.495 84.515 80.495 83 81 C82.505 82.485 82.505 82.485 82 84 C68.85256599 90.70261342 48.91609791 90.16277988 34.9375 86.25 C32.94147294 85.54609897 30.95897036 84.80127138 29 84 C27.73736328 83.53207031 27.73736328 83.53207031 26.44921875 83.0546875 C24.20706836 82.15782734 22.12118247 81.1517358 20 80 C19.360625 79.66226563 18.72125 79.32453125 18.0625 78.9765625 C6.65780341 71.75665377 -1.86410214 55.43268229 -5.44189453 42.72216797 C-6.47486902 37.68381911 -6.47181805 32.68836926 -6.4375 27.5625 C-6.45748047 26.50740234 -6.47746094 25.45230469 -6.49804688 24.36523438 C-6.49246695 15.2978586 -4.11838949 8.0088153 0 0 Z " fill="#F0CD87" transform="translate(174,103)"/>
<path d="M0 0 C1.67542976 0.28604898 3.34385343 0.61781233 5 1 C6.88592233 9.08252427 6.88592233 9.08252427 7.3671875 12.953125 C8.27862481 20.20742193 10.09433447 25.47232425 15 31 C15.72445312 31.53496094 16.44890625 32.06992188 17.1953125 32.62109375 C17.79085937 33.07613281 18.38640625 33.53117187 19 34 C19 34.66 19 35.32 19 36 C20.06891479 36.21172852 20.06891479 36.21172852 21.15942383 36.42773438 C26.01203918 37.40534764 30.84869745 38.45651208 35.6875 39.5 C37.27401367 39.83837891 37.27401367 39.83837891 38.89257812 40.18359375 C39.90126953 40.40144531 40.90996094 40.61929688 41.94921875 40.84375 C42.87049561 41.04162109 43.79177246 41.23949219 44.7409668 41.44335938 C47 42 47 42 49 43 C48.3125 44.96875 48.3125 44.96875 47 47 C44.75 47.46875 44.75 47.46875 42 47.5 C36.77922097 47.7679084 32.82739313 49.00081579 28.09375 51.16015625 C26 52 26 52 23 52 C23 52.66 23 53.32 23 54 C21.68 54.33 20.36 54.66 19 55 C19 55.99 19 56.98 19 58 C18.01 58 17.02 58 16 58 C15.67 58.99 15.34 59.98 15 61 C14.01 61.495 14.01 61.495 13 62 C11.92860836 64.56283282 11.92860836 64.56283282 11 67.625 C10.65324219 68.70652344 10.30648437 69.78804688 9.94921875 70.90234375 C9.2070267 73.32439433 8.49015505 75.74692278 7.8125 78.1875 C7 81 7 81 6 82 C5.63239269 84.32817964 5.29758419 86.6618385 5 89 C2.625 89.625 2.625 89.625 0 90 C-2.79041053 87.20958947 -2.45345682 84.37458531 -2.75 80.625 C-3.42740278 73.67022666 -5.26590778 68.38953036 -8.7578125 62.2578125 C-10 60 -10 60 -10 58 C-10.52980469 57.75378906 -11.05960938 57.50757813 -11.60546875 57.25390625 C-14 56 -14 56 -16.92578125 54.08984375 C-25.71472067 48.42023388 -32.50233334 46.76475817 -43 47 C-43.33 45.68 -43.66 44.36 -44 43 C-42.99582031 42.75765625 -41.99164063 42.5153125 -40.95703125 42.265625 C-23.77740152 39.22601255 -23.77740152 39.22601255 -10 30 C-9.01 29.67 -8.02 29.34 -7 29 C-4.66180893 25.50137336 -3.88765436 21.28561515 -2.875 17.25 C-2.69324219 16.57195312 -2.51148438 15.89390625 -2.32421875 15.1953125 C-1.09590704 10.33747822 -0.92285816 6.0031996 -1 1 C-0.67 0.67 -0.34 0.34 0 0 Z " fill="#F0CE89" transform="translate(56,74)"/>
<path d="M0 0 C0.99 0 1.98 0 3 0 C5.21515418 4.3339973 6.13577429 7.55715148 6.3125 12.4375 C6.73812485 18.40443301 8.68762265 21.90184441 13 26 C20.05829186 31.50069664 26.75928773 33.19495127 35.609375 33.4609375 C38 34 38 34 39.328125 36.0390625 C39.54984375 36.68617188 39.7715625 37.33328125 40 38 C37.45223416 40.54776584 35.97295893 40.46339631 32.4375 40.9375 C24.46646923 42.11237804 24.46646923 42.11237804 17 45 C16.67 45.99 16.34 46.98 16 48 C15.236875 48.515625 14.47375 49.03125 13.6875 49.5625 C7.16366076 55.47947047 5.87644249 65.72659447 4 74 C2.34385343 74.38218767 0.67542976 74.71395102 -1 75 C-2.74168253 73.25831747 -2.58177166 70.74456235 -2.9375 68.375 C-3.66776704 63.7737686 -4.58876791 59.43530086 -6 55 C-6.66 55 -7.32 55 -8 55 C-8.23203125 54.08734375 -8.4640625 53.1746875 -8.703125 52.234375 C-10.95389301 46.62101383 -15.63229041 44.38211964 -21 42 C-24.7319658 41.26134148 -28.33404618 40.82726317 -32.12890625 40.58203125 C-35 40 -35 40 -36.40234375 37.94921875 C-36.59957031 37.30597656 -36.79679687 36.66273438 -37 36 C-33.94237393 34.28231263 -31.26962599 33.58630697 -27.8125 33.0625 C-19.04549578 31.52915213 -13.32598393 30.42409882 -8 23 C-7.34 22.67 -6.68 22.34 -6 22 C-3.26672945 17.51394416 -2.60929144 13.95915988 -2.4375 8.75 C-2.20983607 2.20983607 -2.20983607 2.20983607 0 0 Z " fill="#F0CD87" transform="translate(404,125)"/>
<path d="M0 0 C2.475 0.495 2.475 0.495 5 1 C5.18175781 1.67546875 5.36351562 2.3509375 5.55078125 3.046875 C5.80214844 3.93890625 6.05351562 4.8309375 6.3125 5.75 C6.67794922 7.07257813 6.67794922 7.07257813 7.05078125 8.421875 C8.02282983 11.06200695 9.28854605 12.79476522 11 15 C11 15.66 11 16.32 11 17 C11.639375 17.103125 12.27875 17.20625 12.9375 17.3125 C13.618125 17.539375 14.29875 17.76625 15 18 C15.495 19.485 15.495 19.485 16 21 C17.85625 20.938125 17.85625 20.938125 19.75 20.875 C23.01637962 20.86341709 25.2146947 21.1431298 28 23 C27.67 24.32 27.34 25.64 27 27 C26.18015625 27.19335938 25.3603125 27.38671875 24.515625 27.5859375 C22.89914063 27.97652344 22.89914063 27.97652344 21.25 28.375 C20.18265625 28.63023437 19.1153125 28.88546875 18.015625 29.1484375 C14.30730863 30.16172243 14.30730863 30.16172243 11 32 C9.792117 34.26751067 9.792117 34.26751067 9 37 C8.64679688 38.02738281 8.29359375 39.05476563 7.9296875 40.11328125 C7.58164063 41.16902344 7.23359375 42.22476563 6.875 43.3125 C6.34519531 44.91544922 6.34519531 44.91544922 5.8046875 46.55078125 C5.53914063 47.35902344 5.27359375 48.16726563 5 49 C2.525 49.495 2.525 49.495 0 50 C-0.28875 49.113125 -0.5775 48.22625 -0.875 47.3125 C-3.36539933 39.97965752 -6.11014977 33.19382188 -13 29 C-16.30418704 28.10670212 -19.61555855 27.49945155 -23 27 C-23.33 26.01 -23.66 25.02 -24 24 C-21.45575235 21.45575235 -19.7592418 21.46284456 -16.25 20.8125 C-10.87588495 19.56090538 -8.22184066 18.05650711 -4.98828125 13.62109375 C-3.94752089 11.96481745 -3.94752089 11.96481745 -3 10 C-2.34 10 -1.68 10 -1 10 C-1.020625 8.906875 -1.04125 7.81375 -1.0625 6.6875 C-1 3 -1 3 0 0 Z " fill="#F0CD88" transform="translate(193,249)"/>
<path d="M0 0 C0 0.66 0 1.32 0 2 C-0.58007812 2.18175781 -1.16015625 2.36351563 -1.7578125 2.55078125 C-6.39147293 4.0418106 -10.69762355 5.68333576 -15 8 C-13.02 8.99 -11.04 9.98 -9 11 C-9 11.66 -9 12.32 -9 13 C-9.50015625 12.84660156 -10.0003125 12.69320312 -10.515625 12.53515625 C-13.90327766 11.80542604 -17.29961519 11.63643523 -20.75 11.4375 C-21.44738281 11.39431641 -22.14476562 11.35113281 -22.86328125 11.30664062 C-24.57531922 11.20110404 -26.28763561 11.1001009 -28 11 C-28.33 9.68 -28.66 8.36 -29 7 C-27.45892578 6.61908203 -27.45892578 6.61908203 -25.88671875 6.23046875 C-18.57657768 4.41663447 -11.28544311 2.57350952 -4.0390625 0.515625 C-2 0 -2 0 0 0 Z " fill="#F0DAAA" transform="translate(41,110)"/>
<path d="M0 0 C3.63 0 7.26 0 11 0 C11.66 1.32 12.32 2.64 13 4 C10.45223416 6.54776584 8.97295893 6.46339631 5.4375 6.9375 C-0.00392201 7.7579798 -4.83991847 9.1079701 -10 11 C-5 6 -5 6 -2.75 3.8125 C-0.92892904 2.10747316 -0.92892904 2.10747316 0 0 Z " fill="#F1DCAF" transform="translate(431,159)"/>
<path d="M0 0 C0.99 0 1.98 0 3 0 C5.8352113 5.5522888 6.37952295 9.80112515 6 16 C5.67 16 5.34 16 5 16 C4.34 11.71 3.68 7.42 3 3 C1.68 3 0.36 3 -1 3 C-1 8.28 -1 13.56 -1 19 C-1.99 19.33 -2.98 19.66 -4 20 C-4.12375 20.7425 -4.2475 21.485 -4.375 22.25 C-5.31984457 26.4073161 -5.91240797 28.28378086 -9.5625 30.6875 C-13.71985724 32.27485458 -17.58533377 32.71549929 -22 33 C-20 31 -20 31 -16.6875 30.25 C-11.99119459 28.65803206 -10.90803976 26.90508197 -8 23 C-7.34 22.67 -6.68 22.34 -6 22 C-3.26672945 17.51394416 -2.60929144 13.95915988 -2.4375 8.75 C-2.20983607 2.20983607 -2.20983607 2.20983607 0 0 Z " fill="#F1E0BD" transform="translate(404,125)"/>
<path d="M0 0 C0 0.99 0 1.98 0 3 C-14.89433084 9.85139219 -35.34917003 9.161229 -50.75390625 4.0703125 C-53 3 -53 3 -54 1 C-47.32288172 1.93169092 -40.66226455 2.96810038 -34 4 C-34 4.66 -34 5.32 -34 6 C-30.79138226 5.86004486 -27.58318712 5.71197743 -24.375 5.5625 C-23.47136719 5.52318359 -22.56773437 5.48386719 -21.63671875 5.44335938 C-14.76330871 5.1599173 -14.76330871 5.1599173 -8 4 C-7.67 3.34 -7.34 2.68 -7 2 C-4.6859378 1.26924352 -2.35171131 0.59861742 0 0 Z " fill="#F4EBD7" transform="translate(256,184)"/>
<path d="M0 0 C1.67542976 0.28604898 3.34385343 0.61781233 5 1 C4.67 2.32 4.34 3.64 4 5 C3.67 4.01 3.34 3.02 3 2 C2.34 2 1.68 2 1 2 C1.020625 3.093125 1.04125 4.18625 1.0625 5.3125 C0.98010729 20.77486589 0.98010729 20.77486589 -4 27 C-4.91055628 28.42821947 -5.80592767 29.86621032 -6.6875 31.3125 C-8.88613861 34.88613861 -8.88613861 34.88613861 -10 36 C-11.66617115 36.04063832 -13.33388095 36.042721 -15 36 C-14.04882866 34.8274869 -13.08882991 33.66212985 -12.125 32.5 C-11.59132812 31.8503125 -11.05765625 31.200625 -10.5078125 30.53125 C-10.01023437 30.0259375 -9.51265625 29.520625 -9 29 C-8.34 29 -7.68 29 -7 29 C-4.88398357 25.30173705 -3.90357867 21.34907646 -2.875 17.25 C-2.69324219 16.57195312 -2.51148438 15.89390625 -2.32421875 15.1953125 C-1.09590704 10.33747822 -0.92285816 6.0031996 -1 1 C-0.67 0.67 -0.34 0.34 0 0 Z " fill="#F2E2BE" transform="translate(56,74)"/>
<path d="M0 0 C2.14440941 1.71460475 2.93351591 2.59754129 3.38818359 5.34985352 C3.39156738 6.26694092 3.39495117 7.18402832 3.3984375 8.12890625 C3.40447998 9.15604736 3.41052246 10.18318848 3.41674805 11.24145508 C3.40297119 12.3373999 3.38919434 13.43334473 3.375 14.5625 C3.36702393 15.67971436 3.35904785 16.79692871 3.35083008 17.94799805 C3.23435943 24.81485213 2.79682792 31.5330359 1.6875 38.3125 C1.57003418 39.03961182 1.45256836 39.76672363 1.33154297 40.51586914 C0.61373635 44.33637884 -0.21414925 47.21414925 -3 50 C-3.66 50 -4.32 50 -5 50 C-3.16753927 44.37172775 -3.16753927 44.37172775 -2 41.78125 C-0.74804451 38.2992488 -0.29435664 34.8414025 0.125 31.1875 C0.21136719 30.51396484 0.29773438 29.84042969 0.38671875 29.14648438 C1.10162311 23.21731727 1.34804288 17.43630014 0.5 11.5 C-0.05856939 7.59001428 -0.06920596 3.94473955 0 0 Z " fill="#F7EFDE" transform="translate(315,113)"/>
<path d="M0 0 C14.15482985 2.95678668 14.15482985 2.95678668 16.18359375 5.4609375 C18.95753244 7.81132856 22.2018043 8.09190494 25.6875 8.6875 C26.38939453 8.81705078 27.09128906 8.94660156 27.81445312 9.08007812 C29.54107423 9.39721261 31.27031635 9.70001797 33 10 C33 10.99 33 11.98 33 13 C21.98609744 10.75988422 10.61908214 8.04275673 1 2 C0.67 1.34 0.34 0.68 0 0 Z " fill="#F2E3C2" transform="translate(175,219)"/>
<path d="M0 0 C-7.8796215 5.08362678 -14.73139705 5.84369598 -24 5 C-24.99 4.67 -25.98 4.34 -27 4 C-29.56218514 3.61637228 -32.11791753 3.26139695 -34.6875 2.9375 C-35.38939453 2.84662109 -36.09128906 2.75574219 -36.81445312 2.66210938 C-38.54262623 2.43874006 -40.27126967 2.21901504 -42 2 C-42 1.67 -42 1.34 -42 1 C-40.91203125 1.0721875 -39.8240625 1.144375 -38.703125 1.21875 C-22.0155965 2.93819701 -22.0155965 2.93819701 -5.9375 -0.44140625 C-3.60490161 -1.11390941 -2.2707094 -0.76535071 0 0 Z " fill="#F3E3C2" transform="translate(263,210)"/>
<path d="M0 0 C2.71586284 5.43172567 3.20563881 9.81151351 2.6953125 15.80859375 C2.60636719 16.88560547 2.51742188 17.96261719 2.42578125 19.07226562 C2.32652344 20.18279297 2.22726562 21.29332031 2.125 22.4375 C2.03347656 23.54416016 1.94195312 24.65082031 1.84765625 25.79101562 C1.38650803 31.22412102 0.85246634 36.61396264 0 42 C-0.33 42 -0.66 42 -1 42 C-0.67 28.14 -0.34 14.28 0 0 Z " fill="#F2E5C5" transform="translate(337,107)"/>
<path d="M0 0 C1.32 0.33 2.64 0.66 4 1 C3.01 1 2.02 1 1 1 C1.05220703 1.87011719 1.05220703 1.87011719 1.10546875 2.7578125 C1.28744524 8.009134 0.83377711 11.39511219 -2 16 C-3.32 16 -4.64 16 -6 16 C-6.309375 16.804375 -6.61875 17.60875 -6.9375 18.4375 C-8 21 -8 21 -9 22 C-11.67058851 22.14115161 -14.32432238 22.04247107 -17 22 C-17 21.67 -17 21.34 -17 21 C-15.96875 20.814375 -14.9375 20.62875 -13.875 20.4375 C-9.15055135 19.12195231 -6.73955163 15.89788554 -4 12 C-3.67 11.34 -3.34 10.68 -3 10 C-2.34 10 -1.68 10 -1 10 C-1.020625 8.906875 -1.04125 7.81375 -1.0625 6.6875 C-1 3 -1 3 0 0 Z " fill="#F5EAD2" transform="translate(193,249)"/>
<path d="M0 0 C1.95873047 0.04060547 1.95873047 0.04060547 3.95703125 0.08203125 C5.85001953 0.14197266 5.85001953 0.14197266 7.78125 0.203125 C8.92658203 0.23567383 10.07191406 0.26822266 11.25195312 0.30175781 C14.8511524 0.7984603 17.35793369 1.96489723 20.5 3.75 C17.41212531 4.73435188 15.52132641 4.71055734 12.4140625 3.8515625 C7.23268819 2.5896232 2.19041314 2.30881832 -3.125 2.125 C-4.02734375 2.08632813 -4.9296875 2.04765625 -5.859375 2.0078125 C-10.74319222 1.80847302 -15.6124088 1.70982802 -20.5 1.75 C-20.5 1.42 -20.5 1.09 -20.5 0.75 C-13.62910004 -0.58413008 -6.96488436 -0.22689159 0 0 Z " fill="#F5E9D2" transform="translate(232.5,43.25)"/>
<path d="M0 0 C0.99 0 1.98 0 3 0 C3 3.96 3 7.92 3 12 C1.02 12.99 1.02 12.99 -1 14 C-1 14.66 -1 15.32 -1 16 C-2.32 16.33 -3.64 16.66 -5 17 C-5 16.34 -5 15.68 -5 15 C-4.52949219 14.59136719 -4.05898437 14.18273437 -3.57421875 13.76171875 C-1.35567042 11.27892645 -1.26871607 9.07619958 -0.8125 5.8125 C-0.65394531 4.72582031 -0.49539062 3.63914063 -0.33203125 2.51953125 C-0.22246094 1.68808594 -0.11289063 0.85664063 0 0 Z " fill="#EFCB81" transform="translate(194,250)"/>
<path d="M0 0 C1.65 0.33 3.3 0.66 5 1 C5.20496094 2.16917969 5.40992188 3.33835937 5.62109375 4.54296875 C5.89319855 6.09115122 6.16533567 7.639328 6.4375 9.1875 C6.57220703 9.95642578 6.70691406 10.72535156 6.84570312 11.51757812 C7.52089704 15.35465574 8.21232777 19.18399568 9 23 C8.67 22.34 8.34 21.68 8 21 C7.01 21 6.02 21 5 21 C4.93941406 19.95199219 4.87882813 18.90398437 4.81640625 17.82421875 C4.73198262 16.44529952 4.64733553 15.06639395 4.5625 13.6875 C4.50352539 12.65206055 4.50352539 12.65206055 4.44335938 11.59570312 C4.25072585 8.52838465 3.97677283 5.93031848 3 3 C1.35 4.32 -0.3 5.64 -2 7 C-1.42415568 4.61435923 -0.77772405 2.33317216 0 0 Z " fill="#F5ECDA" transform="translate(174,103)"/>
<path d="M0 0 C-4.95 1.485 -4.95 1.485 -10 3 C-4.555 4.485 -4.555 4.485 1 6 C-2.51605264 6.87901316 -4.6068026 7.09080517 -8.125 6.8125 C-8.99382812 6.75707031 -9.86265625 6.70164063 -10.7578125 6.64453125 C-13 6 -13 6 -14.3046875 3.94921875 C-14.53414063 3.30597656 -14.76359375 2.66273438 -15 2 C-10.13532475 -0.91880515 -5.44094466 -1.36023616 0 0 Z " fill="#F2E8D1" transform="translate(382,159)"/>
<path d="M0 0 C1.32 0.66 2.64 1.32 4 2 C4 2.66 4 3.32 4 4 C5.2375 3.95875 6.475 3.9175 7.75 3.875 C11.01637962 3.86341709 13.2146947 4.1431298 16 6 C15.67 6.99 15.34 7.98 15 9 C14.67 8.34 14.34 7.68 14 7 C9.05 7 4.1 7 -1 7 C-1 6.34 -1 5.68 -1 5 C-0.01 5 0.98 5 2 5 C1.34 3.35 0.68 1.7 0 0 Z " fill="#F4E2C1" transform="translate(205,266)"/>
<path d="M0 0 C0.33 0.66 0.66 1.32 1 2 C0.34 2 -0.32 2 -1 2 C-1.2475 2.804375 -1.495 3.60875 -1.75 4.4375 C-3 7 -3 7 -5.125 7.8125 C-5.74375 7.874375 -6.3625 7.93625 -7 8 C-7 8.66 -7 9.32 -7 10 C-9.31 10.33 -11.62 10.66 -14 11 C-11.36324434 8.08073481 -9.76539616 6.90888873 -6 6 C-5.67 5.01 -5.34 4.02 -5 3 C-2.4375 1.3125 -2.4375 1.3125 0 0 Z " fill="#F1E1C2" transform="translate(290,191)"/>
<path d="M0 0 C0.6875 1.8125 0.6875 1.8125 1 4 C-0.3125 5.75 -0.3125 5.75 -2 7 C-2.66 7 -3.32 7 -4 7 C-4.33 9.31 -4.66 11.62 -5 14 C-6.65 14.66 -8.3 15.32 -10 16 C-9.38479725 12.00118212 -7.39731331 9.19641774 -5 6 C-4.34 6 -3.68 6 -3 6 C-3 5.01 -3 4.02 -3 3 C-2.34 3 -1.68 3 -1 3 C-0.67 2.01 -0.34 1.02 0 0 Z " fill="#F3E2C3" transform="translate(147,62)"/>
<path d="M0 0 C0.99 0 1.98 0 3 0 C5.8352113 5.5522888 6.37952295 9.80112515 6 16 C5.67 16 5.34 16 5 16 C4.34 11.71 3.68 7.42 3 3 C1.68 3 0.36 3 -1 3 C-1 6.96 -1 10.92 -1 15 C-1.33 15 -1.66 15 -2 15 C-2.05386629 12.87527424 -2.09273071 10.75016348 -2.125 8.625 C-2.14820313 7.44164062 -2.17140625 6.25828125 -2.1953125 5.0390625 C-2 2 -2 2 0 0 Z " fill="#F8F2E5" transform="translate(404,125)"/>
<path d="M0 0 C-4.18732132 4.62809198 -8.96472076 6.63352168 -15 8 C-15.66 7.67 -16.32 7.34 -17 7 C-4.15469613 -2.07734807 -4.15469613 -2.07734807 0 0 Z " fill="#F2E1BF" transform="translate(188,33)"/>
<path d="M0 0 C0 4.29 0 8.58 0 13 C-0.66 13 -1.32 13 -2 13 C-4.09065618 9.60268371 -4.42098999 6.95730595 -4 3 C-1.7 0 -1.7 0 0 0 Z " fill="#F1CA81" transform="translate(197,285)"/>
<path d="M0 0 C2.5 1.3125 2.5 1.3125 5 3 C5 3.99 5 4.98 5 6 C6.65 6.33 8.3 6.66 10 7 C10 9.31 10 11.62 10 14 C9.34 14 8.68 14 8 14 C5 9.61538462 5 9.61538462 5 7 C4.34 7 3.68 7 3 7 C0 2.61538462 0 2.61538462 0 0 Z " fill="#F4E6C9" transform="translate(141,184)"/>
<path d="M0 0 C6.67711828 0.93169092 13.33773545 1.96810038 20 3 C20 3.66 20 4.32 20 5 C13.22405887 5.32786812 7.29093911 4.7210808 1 2 C0.67 1.34 0.34 0.68 0 0 Z " fill="#EFDCB5" transform="translate(202,185)"/>
<path d="M0 0 C11.52164009 0.77904328 11.52164009 0.77904328 17 3 C16.34 4.32 15.68 5.64 15 7 C12.03 7 9.06 7 6 7 C6 6.67 6 6.34 6 6 C8.31 6 10.62 6 13 6 C13 5.01 13 4.02 13 3 C12.39671875 2.95101562 11.7934375 2.90203125 11.171875 2.8515625 C10.37265625 2.77679688 9.5734375 2.70203125 8.75 2.625 C7.96109375 2.55539063 7.1721875 2.48578125 6.359375 2.4140625 C3.914123 1.98492887 2.15163097 1.21399362 0 0 Z " fill="#F3E8CF" transform="translate(88,114)"/>
<path d="M0 0 C1.67542976 0.28604898 3.34385343 0.61781233 5 1 C4.67 2.32 4.34 3.64 4 5 C3.67 4.01 3.34 3.02 3 2 C2.34 2 1.68 2 1 2 C1.04125 3.155 1.0825 4.31 1.125 5.5 C1.14087433 9.94481301 0.21793105 13.73724131 -1 18 C-2.10300163 14.69099512 -1.7494128 12.46986379 -1.25390625 9.0703125 C-0.93025916 6.77898129 -0.93025916 6.77898129 -1 3.5625 C-1 1 -1 1 0 0 Z " fill="#F3E9D1" transform="translate(56,74)"/>
<path d="M0 0 C2.75934016 1.37967008 3.17538641 3.0542345 4.5 5.8125 C4.9228125 6.68519531 5.345625 7.55789062 5.78125 8.45703125 C6.1834375 9.29621094 6.585625 10.13539063 7 11 C7.66397352 12.33467651 8.32961155 13.66853406 9 15 C7.35 14.01 5.7 13.02 4 12 C3.67 12.66 3.34 13.32 3 14 C2.814375 12.576875 2.814375 12.576875 2.625 11.125 C2.28312823 7.91332809 2.28312823 7.91332809 0 6 C-0.125 2.875 -0.125 2.875 0 0 Z " fill="#F4E4C2" transform="translate(185,130)"/>
<path d="M0 0 C0.33 0.66 0.66 1.32 1 2 C0.36220835 3.6779285 -0.31107192 5.34241129 -1 7 C-1.57805624 9.26184389 -2.11856671 11.53355021 -2.625 13.8125 C-2.88539063 14.97394531 -3.14578125 16.13539062 -3.4140625 17.33203125 C-3.60742188 18.21246094 -3.80078125 19.09289062 -4 20 C-4.33 20 -4.66 20 -5 20 C-5.05418326 17.91695462 -5.09287551 15.83350232 -5.125 13.75 C-5.14820313 12.58984375 -5.17140625 11.4296875 -5.1953125 10.234375 C-5.0103949 7.17213954 -4.60823023 5.55797249 -3 3 C-2.34 3 -1.68 3 -1 3 C-0.67 2.01 -0.34 1.02 0 0 Z " fill="#F4E6CB" transform="translate(154,90)"/>
<path d="M0 0 C-1.98 0.66 -3.96 1.32 -6 2 C-3.03 2.495 -3.03 2.495 0 3 C0 3.66 0 4.32 0 5 C-2.97 5 -5.94 5 -9 5 C-9.33 3.68 -9.66 2.36 -10 1 C-8.71073008 0.63720544 -7.41846728 0.28503302 -6.125 -0.0625 C-5.40570312 -0.25972656 -4.68640625 -0.45695312 -3.9453125 -0.66015625 C-2 -1 -2 -1 0 0 Z " fill="#F3E6CB" transform="translate(22,116)"/>
<path d="M0 0 C1.42409048 2.84818095 0.6019344 4.45446627 -0.1875 7.5 C-0.42855469 8.4796875 -0.66960937 9.459375 -0.91796875 10.46875 C-2 13 -2 13 -4.11328125 14.34375 C-4.73589844 14.5603125 -5.35851562 14.776875 -6 15 C-5.39644592 11.14974121 -4.23227397 8.13898841 -2.4375 4.6875 C-1.98246094 3.80449219 -1.52742187 2.92148438 -1.05859375 2.01171875 C-0.53458984 1.01591797 -0.53458984 1.01591797 0 0 Z " fill="#F1E2BD" transform="translate(136,78)"/>
<path d="M0 0 C1.7632507 2.64487605 2.57843145 4.46744484 3.5 7.4375 C4.44017638 10.45730567 5.52111481 13.20159225 7 16 C4.10671586 14.70301056 1.95063328 13.52695675 0 11 C-0.29296875 8.30078125 -0.29296875 8.30078125 -0.1875 5.3125 C-0.16042969 4.31863281 -0.13335937 3.32476562 -0.10546875 2.30078125 C-0.07066406 1.54152344 -0.03585938 0.78226563 0 0 Z " fill="#F2E1C1" transform="translate(197,250)"/>
<path d="M0 0 C2.76223278 2.76223278 2.57856291 5.20706617 3 9 C3.99 9 4.98 9 6 9 C6.185625 7.7934375 6.185625 7.7934375 6.375 6.5625 C6.58125 5.716875 6.7875 4.87125 7 4 C7.66 3.67 8.32 3.34 9 3 C8.01 5.97 7.02 8.94 6 12 C4.35 11.67 2.7 11.34 1 11 C0.67 7.37 0.34 3.74 0 0 Z " fill="#F3E7D0" transform="translate(401,188)"/>
<path d="M0 0 C2.475 0.495 2.475 0.495 5 1 C5.12117187 1.78246094 5.24234375 2.56492187 5.3671875 3.37109375 C5.53476563 4.38300781 5.70234375 5.39492188 5.875 6.4375 C6.03742188 7.44683594 6.19984375 8.45617187 6.3671875 9.49609375 C6.57601562 10.32238281 6.78484375 11.14867187 7 12 C7.66 12.33 8.32 12.66 9 13 C7.35 12.67 5.7 12.34 4 12 C3.87882813 11.38511719 3.75765625 10.77023437 3.6328125 10.13671875 C3.46523437 9.32847656 3.29765625 8.52023437 3.125 7.6875 C2.96257812 6.88699219 2.80015625 6.08648437 2.6328125 5.26171875 C2.05521001 2.74698882 2.05521001 2.74698882 0 0 Z " fill="#F0E1BD" transform="translate(188,286)"/>
<path d="M0 0 C0.78375 0.04125 1.5675 0.0825 2.375 0.125 C2.045 1.445 1.715 2.765 1.375 4.125 C3.025 4.455 4.675 4.785 6.375 5.125 C2.68081799 6.356394 0.1693739 5.76932764 -3.625 5.125 C-3.955 4.135 -4.285 3.145 -4.625 2.125 C-2.625 0.125 -2.625 0.125 0 0 Z " fill="#F2E4C7" transform="translate(173.625,270.875)"/>
<path d="M0 0 C0.33 0 0.66 0 1 0 C1.08636719 0.65226563 1.17273438 1.30453125 1.26171875 1.9765625 C2.25358851 8.14617438 3.57066275 11.57066275 8 16 C7.67 16.66 7.34 17.32 7 18 C6.01 17.67 5.02 17.34 4 17 C3.29788106 15.34795544 2.63028587 13.68076231 2 12 C1.34 11.67 0.68 11.34 0 11 C0 7.37 0 3.74 0 0 Z " fill="#F0DEBA" transform="translate(408,133)"/>
<path d="M0 0 C6.32966418 0.56263682 12.21835667 2.34924657 18 5 C18.33 5.66 18.66 6.32 19 7 C17.02 7 15.04 7 13 7 C13 6.34 13 5.68 13 5 C12.22914063 4.80664062 11.45828125 4.61328125 10.6640625 4.4140625 C9.15972656 4.02347656 9.15972656 4.02347656 7.625 3.625 C6.62726563 3.36976562 5.62953125 3.11453125 4.6015625 2.8515625 C2 2 2 2 0 0 Z " fill="#F3E8CC" transform="translate(262,25)"/>
<path d="M0 0 C1.98 0.99 1.98 0.99 4 2 C4 2.66 4 3.32 4 4 C4.99 4.33 5.98 4.66 7 5 C8.6875 6.5625 8.6875 6.5625 10 8 C9.67 8.66 9.34 9.32 9 10 C8.071875 9.360625 7.14375 8.72125 6.1875 8.0625 C3.15780057 5.91377907 3.15780057 5.91377907 0 5 C0 3.35 0 1.7 0 0 Z " fill="#F3E4C8" transform="translate(354,210)"/>
<path d="M0 0 C-7.92 0.495 -7.92 0.495 -16 1 C-15 -1 -15 -1 -13.4375 -1.625 C-8.52148832 -2.38130949 -4.28232553 -2.85488368 0 0 Z " fill="#F3E7CD" transform="translate(340,202)"/>
<path d="M0 0 C1.60170888 4.0042722 0.34040384 7.05325536 -1 11 C-1.33 11.33 -1.66 11.66 -2 12 C-2.36760731 14.32817964 -2.70241581 16.6618385 -3 19 C-3.33 19 -3.66 19 -4 19 C-4 15.7 -4 12.4 -4 9 C-3.34 9 -2.68 9 -2 9 C-1.7834375 7.329375 -1.7834375 7.329375 -1.5625 5.625 C-1 2 -1 2 0 0 Z " fill="#F3E7CE" transform="translate(64,144)"/>
<path d="M0 0 C0.66 0.33 1.32 0.66 2 1 C0.68 2.32 -0.64 3.64 -2 5 C-2.33 4.67 -2.66 4.34 -3 4 C-3.33 4.99 -3.66 5.98 -4 7 C-6.31 7 -8.62 7 -11 7 C-9.60623819 4.21247638 -7.82491442 3.69568885 -5.0625 2.3125 C-4.16660156 1.85488281 -3.27070313 1.39726562 -2.34765625 0.92578125 C-1.57292969 0.62027344 -0.79820312 0.31476563 0 0 Z " fill="#F2E2BE" transform="translate(274,202)"/>
<path d="M0 0 C1.64951226 0.95198711 3.29451508 1.91179145 4.9375 2.875 C5.85402344 3.40867188 6.77054688 3.94234375 7.71484375 4.4921875 C10 6 10 6 11 8 C9.35 8 7.7 8 6 8 C5.34 6.68 4.68 5.36 4 4 C3.01 4 2.02 4 1 4 C0.67 2.68 0.34 1.36 0 0 Z " fill="#F1E2C2" transform="translate(173,192)"/>
<path d="M0 0 C2.97 1.65 5.94 3.3 9 5 C9 6.32 9 7.64 9 9 C5.18063472 7.44396229 2.73955562 5.04395069 0 2 C0 1.34 0 0.68 0 0 Z " fill="#F2E0BE" transform="translate(183,171)"/>
<path d="M0 0 C4.37859255 0.50522222 6.81651224 3.17827222 10 6 C9.01 6.495 9.01 6.495 8 7 C4.4375 5.8125 4.4375 5.8125 1 4 C0.0625 1.8125 0.0625 1.8125 0 0 Z " fill="#F0DDB9" transform="translate(211,162)"/>
<path d="M0 0 C0.66 0 1.32 0 2 0 C3.85776765 3.13498292 4.20140476 5.37471432 4 9 C4.66 9 5.32 9 6 9 C6 11.31 6 13.62 6 16 C4.45921385 13.01559439 3.13026724 9.98992242 1.875 6.875 C1.52179688 6.00617188 1.16859375 5.13734375 0.8046875 4.2421875 C0 2 0 2 0 0 Z " fill="#F2E4C7" transform="translate(129,156)"/>
<path d="M0 0 C0 3.51716303 -0.82445585 4.37121748 -3 7 C-2.34 7 -1.68 7 -1 7 C-1 7.66 -1 8.32 -1 9 C-1.99 9.33 -2.98 9.66 -4 10 C-4.33 7.36 -4.66 4.72 -5 2 C-3.35 1.34 -1.7 0.68 0 0 Z " fill="#F2DFB8" transform="translate(320,188)"/>
<path d="M0 0 C1 3 1 3 -0.1796875 5.48046875 C-1.01886719 6.82044922 -1.01886719 6.82044922 -1.875 8.1875 C-2.42929687 9.08855469 -2.98359375 9.98960937 -3.5546875 10.91796875 C-4.03164063 11.60503906 -4.50859375 12.29210937 -5 13 C-5.33 13 -5.66 13 -6 13 C-6 11.35 -6 9.7 -6 8 C-5.34 8 -4.68 8 -4 8 C-3.67 5.69 -3.34 3.38 -3 1 C-2.01 0.67 -1.02 0.34 0 0 Z " fill="#F1E2BF" transform="translate(328,174)"/>
<path d="M0 0 C0.66 0 1.32 0 2 0 C2 1.32 2 2.64 2 4 C2.99 4 3.98 4 5 4 C5.76411467 7.73567172 6.07174763 10.34811918 5 14 C0.59225513 4.58997722 0.59225513 4.58997722 0 0 Z " fill="#EFD9AB" transform="translate(50,140)"/>
<path d="M0 0 C1.4727491 3.82914766 0.50018704 6.28901101 -1 10 C-1.99 11.485 -1.99 11.485 -3 13 C-3.66 13 -4.32 13 -5 13 C-3.58192622 8.52761347 -1.88695626 4.28853694 0 0 Z " fill="#F0E0BF" transform="translate(315,150)"/>
<path d="M0 0 C1.48828125 1.14453125 1.48828125 1.14453125 3 3 C3.29296875 5.69921875 3.29296875 5.69921875 3.1875 8.6875 C3.16042969 9.68136719 3.13335937 10.67523438 3.10546875 11.69921875 C3.07066406 12.45847656 3.03585937 13.21773437 3 14 C2.67 14 2.34 14 2 14 C2 12.02 2 10.04 2 8 C1.34 8 0.68 8 0 8 C0 5.36 0 2.72 0 0 Z " fill="#EFDFB7" transform="translate(315,113)"/>
<path d="M0 0 C1.34201604 2.68403208 0.70405525 3.7430131 -0.1875 6.5625 C-0.42855469 7.36816406 -0.66960937 8.17382812 -0.91796875 9.00390625 C-2 11 -2 11 -4.11328125 11.77734375 C-5.04720703 11.88755859 -5.04720703 11.88755859 -6 12 C-4.43358249 7.69235185 -2.31663844 3.93828536 0 0 Z " fill="#F3E6C6" transform="translate(307,168)"/>
<path d="M0 0 C0 0.33 0 0.66 0 1 C-1.22976562 1.29003906 -1.22976562 1.29003906 -2.484375 1.5859375 C-4.10085937 1.97652344 -4.10085937 1.97652344 -5.75 2.375 C-7.35101563 2.75785156 -7.35101563 2.75785156 -8.984375 3.1484375 C-11.55852722 3.87533541 -13.67600186 4.7026224 -16 6 C-15.34 4.35 -14.68 2.7 -14 1 C-9.27616037 0.34843591 -4.78025483 -0.11950637 0 0 Z " fill="#F5EAD4" transform="translate(220,275)"/>
<path d="M0 0 C0.845625 0.144375 1.69125 0.28875 2.5625 0.4375 C6.03593149 1.0058797 9.51445662 1.51202393 13 2 C13 2.99 13 3.98 13 5 C3.40546697 3.25740319 3.40546697 3.25740319 0 0 Z " fill="#EFDEB5" transform="translate(195,227)"/>
<path d="M0 0 C1.60597325 0.45196245 3.20972508 0.91182327 4.8125 1.375 C6.15248047 1.75785156 6.15248047 1.75785156 7.51953125 2.1484375 C10 3 10 3 13 5 C11.20793453 4.85915204 9.41635083 4.71216299 7.625 4.5625 C6.62726563 4.48128906 5.62953125 4.40007812 4.6015625 4.31640625 C2 4 2 4 0 3 C0 2.01 0 1.02 0 0 Z " fill="#F4E6C9" transform="translate(228,173)"/>
<path d="M0 0 C2.3125 0.125 2.3125 0.125 5 1 C6.8125 4.0625 6.8125 4.0625 8 7 C5.05043472 5.63055898 2.47531189 4.12169591 0 2 C0 1.34 0 0.68 0 0 Z " fill="#F1E2C2" transform="translate(280,62)"/>
<path d="M0 0 C0.33 0.66 0.66 1.32 1 2 C0.34 2 -0.32 2 -1 2 C-1.309375 2.804375 -1.61875 3.60875 -1.9375 4.4375 C-3 7 -3 7 -4 8 C-6.67058851 8.14115161 -9.32432238 8.04247107 -12 8 C-12 7.67 -12 7.34 -12 7 C-10.948125 6.773125 -9.89625 6.54625 -8.8125 6.3125 C-4.8402094 5.20639469 -2.70400363 3.11370115 0 0 Z " fill="#F4EBD3" transform="translate(188,263)"/>
<path d="M0 0 C4.0369867 1.79421631 6.64480474 3.20551875 9 7 C8.67 7.66 8.34 8.32 8 9 C6.125 8.75 6.125 8.75 4 8 C2.875 6.1875 2.875 6.1875 2 4 C1.62875 3.2575 1.2575 2.515 0.875 1.75 C0.58625 1.1725 0.2975 0.595 0 0 Z " fill="#F5E7CC" transform="translate(393,250)"/>
<path d="M0 0 C3.36591866 1.44253657 5.51047079 3.33264727 8 6 C7.67 6.66 7.34 7.32 7 8 C5.1875 7.8125 5.1875 7.8125 3 7 C0 2.82142857 0 2.82142857 0 0 Z " fill="#F2E1C0" transform="translate(371,227)"/>
<path d="M0 0 C2.5 1.3125 2.5 1.3125 5 3 C5 3.99 5 4.98 5 6 C5.66 6 6.32 6 7 6 C7 7.65 7 9.3 7 11 C5.66104368 9.33784732 4.32869858 7.67036393 3 6 C2.4225 5.278125 1.845 4.55625 1.25 3.8125 C0 2 0 2 0 0 Z " fill="#F2E5C6" transform="translate(301,83)"/>
<path d="M0 0 C4.83256305 0.41421969 6.82679218 2.46413986 10 6 C7.03 5.505 7.03 5.505 4 5 C4 4.34 4 3.68 4 3 C3.34 3 2.68 3 2 3 C2 2.34 2 1.68 2 1 C1.34 0.67 0.68 0.34 0 0 Z " fill="#F1E4C6" transform="translate(344,204)"/>
<path d="M0 0 C2.64752004 2.57784846 4.94432065 4.91648098 7 8 C3 8 3 8 1.25 6.8125 C-0.38540232 4.44116664 -0.22858693 2.81923877 0 0 Z " fill="#F1E3C2" transform="translate(163,180)"/>
<path d="M0 0 C2.70272533 2.87164566 3.94791837 4.30991841 4.25 8.3125 C4.1675 9.199375 4.085 10.08625 4 11 C1.9656541 9.58480285 1.09589607 8.45017877 0.578125 6.01953125 C0.33726048 4.01823046 0.16467259 2.0090056 0 0 Z " fill="#F2E4C5" transform="translate(155,162)"/>
<path d="M0 0 C1.22589844 0.01353516 1.22589844 0.01353516 2.4765625 0.02734375 C3.41628906 0.04474609 3.41628906 0.04474609 4.375 0.0625 C1.65560541 1.5201935 -0.87254273 2.48692664 -3.875 3.1875 C-5.1125 3.47625 -6.35 3.765 -7.625 4.0625 C-7.295 3.0725 -6.965 2.0825 -6.625 1.0625 C-4.21954362 -0.14022819 -2.67503047 -0.03821472 0 0 Z " fill="#F1E3C3" transform="translate(203.625,45.9375)"/>
<path d="M0 0 C1.80125336 2.70188004 3.00243753 4.93057703 4 8 C3.67 8.99 3.34 9.98 3 11 C3 10.34 3 9.68 3 9 C2.01 9 1.02 9 0 9 C0 6.03 0 3.06 0 0 Z " fill="#F1E1BF" transform="translate(179,115)"/>
<path d="M0 0 C5.75 1.75 5.75 1.75 8 4 C8 4.99 8 5.98 8 7 C7.01 6.67 6.02 6.34 5 6 C5 5.34 5 4.68 5 4 C4.360625 3.71125 3.72125 3.4225 3.0625 3.125 C1 2 1 2 0 0 Z " fill="#F4E3C6" transform="translate(153,201)"/>
<path d="M0 0 C2.31 0.33 4.62 0.66 7 1 C7 1.66 7 2.32 7 3 C8.32 3.33 9.64 3.66 11 4 C9.4375 4.75 9.4375 4.75 7 5 C4.49713591 3.86915563 2.32992278 2.47860484 0 1 C0 0.67 0 0.34 0 0 Z " fill="#F1E3C3" transform="translate(32,123)"/>
<path d="M0 0 C1.65 0 3.3 0 5 0 C6.04449911 3.13349732 5.93423645 3.98968256 5 7 C0 1.125 0 1.125 0 0 Z " fill="#EFDFB7" transform="translate(295,76)"/>
<path d="M0 0 C0.33 0.66 0.66 1.32 1 2 C0.67 2.99 0.34 3.98 0 5 C-2.5625 6.1875 -2.5625 6.1875 -5 7 C-4.60196439 4.11424181 -4.20990931 3.17810487 -1.9375 1.25 C-1.298125 0.8375 -0.65875 0.425 0 0 Z " fill="#F0DEB4" transform="translate(142,71)"/>
<path d="M0 0 C0.99 0 1.98 0 3 0 C3.99 2.31 4.98 4.62 6 7 C3.00675737 5.9024777 2.15389099 5.32317108 0.75 2.375 C0.5025 1.59125 0.255 0.8075 0 0 Z " fill="#F4E5CB" transform="translate(358,291)"/>
<path d="M0 0 C0.99 0 1.98 0 3 0 C2.67 1.65 2.34 3.3 2 5 C1.01 5.33 0.02 5.66 -1 6 C-0.67 4.02 -0.34 2.04 0 0 Z " fill="#F1DBB3" transform="translate(190,259)"/>
<path d="M0 0 C1.98 0.99 1.98 0.99 4 2 C4 2.66 4 3.32 4 4 C4.99 4.33 5.98 4.66 7 5 C7 5.66 7 6.32 7 7 C6.01 7.33 5.02 7.66 4 8 C2.66666667 5.33333333 1.33333333 2.66666667 0 0 Z " fill="#F6E9D0" transform="translate(382,238)"/>
<path d="M0 0 C0.66 0.33 1.32 0.66 2 1 C2 3.31 2 5.62 2 8 C1.34 8 0.68 8 0 8 C-0.38063221 5.6739143 -0.71269945 3.33944736 -1 1 C-0.67 0.67 -0.34 0.34 0 0 Z " fill="#F1D8AA" transform="translate(149,190)"/>
<path d="M0 0 C2.79872437 2.52788007 4.45773019 4.20411134 5 8 C4.34 8 3.68 8 3 8 C0.25624329 5.04518508 0 4.22528092 0 0 Z " fill="#F2E4C7" transform="translate(323,71)"/>
<path d="M0 0 C0.99 0 1.98 0 3 0 C3.33 2.31 3.66 4.62 4 7 C3.34 7 2.68 7 2 7 C1.34 4.69 0.68 2.38 0 0 Z " fill="#EFDEBE" transform="translate(394,173)"/>
</svg>
